<svg width="20" height="20" viewBox="0 0 20 20" fill="none" xmlns="http://www.w3.org/2000/svg">
<path opacity="0.5" d="M10 8.08594C11.8769 8.08594 13.3984 6.56441 13.3984 4.6875C13.3984 2.81059 11.8769 1.28906 10 1.28906C8.12309 1.28906 6.60156 2.81059 6.60156 4.6875C6.60156 6.56441 8.12309 8.08594 10 8.08594Z" fill="#9FA6B1"/>
<path d="M10 8.08594V1.28906C11.8738 1.28906 13.3984 2.81367 13.3984 4.6875C13.3984 6.56133 11.8738 8.08594 10 8.08594Z" fill="#9FA6B1"/>
<path opacity="0.5" d="M15.2734 14.1414V17.343C15.2734 18.0973 14.6598 18.7109 13.9055 18.7109H6.09453C5.34023 18.7109 4.72656 18.0973 4.72656 17.343V14.1414C4.72656 11.5348 6.84727 9.41406 9.45391 9.41406H10.5461C13.1527 9.41406 15.2734 11.5348 15.2734 14.1414Z" fill="#9FA6B1"/>
<path d="M15.2734 14.1414V17.343C15.2734 18.0973 14.6598 18.7109 13.9055 18.7109H10V9.41406H10.5461C13.1527 9.41406 15.2734 11.5348 15.2734 14.1414Z" fill="#9FA6B1"/>
</svg>
