<svg width="38" height="39" viewBox="0 0 38 39" fill="none" xmlns="http://www.w3.org/2000/svg">
<g filter="url(#filter0_d_1_29)">
<path d="M18.0633 4.47689C18.4928 3.77893 19.5073 3.77893 19.9368 4.47689L23.2825 9.91361C23.5 10.2671 23.5 10.713 23.2825 11.0666L19.9368 16.5033C19.5073 17.2012 18.4928 17.2012 18.0633 16.5033L14.7176 11.0666C14.5 10.713 14.5 10.2671 14.7176 9.91361L18.0633 4.47689Z" stroke="#9FA6B1"/>
</g>
<g filter="url(#filter1_d_1_29)">
<path d="M27.9003 7.77528C28.6975 7.58546 29.4149 8.30284 29.2251 9.10007L27.7465 15.3102C27.6504 15.714 27.3351 16.0293 26.9313 16.1254L20.7212 17.604C19.9239 17.7938 19.2065 17.0765 19.3964 16.2792L20.875 10.0691C20.9711 9.66531 21.2864 9.35002 21.6902 9.25387L27.9003 7.77528Z" stroke="#9FA6B1"/>
</g>
<g filter="url(#filter2_d_1_29)">
<path d="M5.47713 18.9368C4.77918 18.5073 4.77918 17.4928 5.47713 17.0632L10.9139 13.7176C11.2674 13.5 11.7133 13.5 12.0668 13.7176L17.5035 17.0632C18.2015 17.4928 18.2015 18.5073 17.5035 18.9368L12.0668 22.2825C11.7133 22.5 11.2674 22.5 10.9139 22.2825L5.47713 18.9368Z" stroke="#9FA6B1"/>
</g>
<g filter="url(#filter3_d_1_29)">
<path d="M8.77577 9.10006C8.58595 8.30282 9.30333 7.58544 10.1006 7.77526L16.3107 9.25385C16.7145 9.35 17.0298 9.6653 17.1259 10.0691L18.6045 16.2792C18.7943 17.0764 18.0769 17.7938 17.2797 17.604L11.0696 16.1254C10.6658 16.0293 10.3505 15.714 10.2544 15.3101L8.77577 9.10006Z" stroke="#9FA6B1"/>
</g>
<g filter="url(#filter4_d_1_29)">
<path d="M18.0633 19.4968C18.4928 18.7988 19.5073 18.7988 19.9368 19.4968L23.2825 24.9335C23.5 25.287 23.5 25.7329 23.2825 26.0864L19.9368 31.5231C19.5073 32.2211 18.4928 32.2211 18.0633 31.5231L14.7176 26.0864C14.5 25.7329 14.5 25.287 14.7176 24.9335L18.0633 19.4968Z" stroke="#9FA6B1"/>
</g>
<g filter="url(#filter5_d_1_29)">
<path d="M17.2795 18.3959C18.0768 18.206 18.7941 18.9234 18.6043 19.7206L17.1257 25.9307C17.0296 26.3346 16.7143 26.6499 16.3105 26.746L10.1004 28.2246C9.30314 28.4144 8.58576 27.697 8.77558 26.8998L10.2542 20.6897C10.3503 20.2859 10.6656 19.9706 11.0694 19.8744L17.2795 18.3959Z" stroke="#9FA6B1"/>
</g>
<g filter="url(#filter6_d_1_29)">
<path d="M20.4971 18.9368C19.7992 18.5073 19.7992 17.4928 20.4971 17.0632L25.9339 13.7176C26.2874 13.5 26.7333 13.5 27.0868 13.7176L32.5235 17.0632C33.2215 17.4928 33.2215 18.5073 32.5235 18.9368L27.0868 22.2825C26.7333 22.5 26.2874 22.5 25.9339 22.2825L20.4971 18.9368Z" stroke="#9FA6B1"/>
</g>
<g filter="url(#filter7_d_1_29)">
<path d="M19.3966 19.7208C19.2067 18.9235 19.9241 18.2061 20.7214 18.396L26.9314 19.8746C27.3353 19.9707 27.6506 20.286 27.7467 20.6898L29.2253 26.8999C29.4151 27.6971 28.6977 28.4145 27.9005 28.2247L21.6904 26.7461C21.2866 26.65 20.9713 26.3347 20.8751 25.9308L19.3966 19.7208Z" stroke="#9FA6B1"/>
</g>
<g filter="url(#filter8_d_1_29)">
<rect x="15.0822" y="18.3265" width="5.68606" height="5.68606" rx="1.59994" transform="rotate(-45 15.0822 18.3265)" fill="white"/>
<rect x="15.7893" y="18.3265" width="4.68606" height="4.68606" rx="1.09994" transform="rotate(-45 15.7893 18.3265)" stroke="#9FA6B1"/>
</g>
<defs>
<filter id="filter0_d_1_29" x="10.0544" y="0.95343" width="17.8912" height="22.0733" filterUnits="userSpaceOnUse" color-interpolation-filters="sRGB">
<feFlood flood-opacity="0" result="BackgroundImageFix"/>
<feColorMatrix in="SourceAlpha" type="matrix" values="0 0 0 0 0 0 0 0 0 0 0 0 0 0 0 0 0 0 127 0" result="hardAlpha"/>
<feOffset dy="1.5"/>
<feGaussianBlur stdDeviation="2"/>
<feColorMatrix type="matrix" values="0 0 0 0 0.623529 0 0 0 0 0.65098 0 0 0 0 0.694118 0 0 0 0.44 0"/>
<feBlend mode="normal" in2="BackgroundImageFix" result="effect1_dropShadow_1_29"/>
<feBlend mode="normal" in="SourceGraphic" in2="effect1_dropShadow_1_29" result="shape"/>
</filter>
<filter id="filter1_d_1_29" x="14.8652" y="4.74405" width="18.8912" height="18.8912" filterUnits="userSpaceOnUse" color-interpolation-filters="sRGB">
<feFlood flood-opacity="0" result="BackgroundImageFix"/>
<feColorMatrix in="SourceAlpha" type="matrix" values="0 0 0 0 0 0 0 0 0 0 0 0 0 0 0 0 0 0 127 0" result="hardAlpha"/>
<feOffset dy="1.5"/>
<feGaussianBlur stdDeviation="2"/>
<feColorMatrix type="matrix" values="0 0 0 0 0.623529 0 0 0 0 0.65098 0 0 0 0 0.694118 0 0 0 0.44 0"/>
<feBlend mode="normal" in2="BackgroundImageFix" result="effect1_dropShadow_1_29"/>
<feBlend mode="normal" in="SourceGraphic" in2="effect1_dropShadow_1_29" result="shape"/>
</filter>
<filter id="filter2_d_1_29" x="0.453674" y="10.5544" width="22.0733" height="17.8912" filterUnits="userSpaceOnUse" color-interpolation-filters="sRGB">
<feFlood flood-opacity="0" result="BackgroundImageFix"/>
<feColorMatrix in="SourceAlpha" type="matrix" values="0 0 0 0 0 0 0 0 0 0 0 0 0 0 0 0 0 0 127 0" result="hardAlpha"/>
<feOffset dy="1.5"/>
<feGaussianBlur stdDeviation="2"/>
<feColorMatrix type="matrix" values="0 0 0 0 0.623529 0 0 0 0 0.65098 0 0 0 0 0.694118 0 0 0 0.44 0"/>
<feBlend mode="normal" in2="BackgroundImageFix" result="effect1_dropShadow_1_29"/>
<feBlend mode="normal" in="SourceGraphic" in2="effect1_dropShadow_1_29" result="shape"/>
</filter>
<filter id="filter3_d_1_29" x="4.24457" y="4.74405" width="18.8912" height="18.8912" filterUnits="userSpaceOnUse" color-interpolation-filters="sRGB">
<feFlood flood-opacity="0" result="BackgroundImageFix"/>
<feColorMatrix in="SourceAlpha" type="matrix" values="0 0 0 0 0 0 0 0 0 0 0 0 0 0 0 0 0 0 127 0" result="hardAlpha"/>
<feOffset dy="1.5"/>
<feGaussianBlur stdDeviation="2"/>
<feColorMatrix type="matrix" values="0 0 0 0 0.623529 0 0 0 0 0.65098 0 0 0 0 0.694118 0 0 0 0.44 0"/>
<feBlend mode="normal" in2="BackgroundImageFix" result="effect1_dropShadow_1_29"/>
<feBlend mode="normal" in="SourceGraphic" in2="effect1_dropShadow_1_29" result="shape"/>
</filter>
<filter id="filter4_d_1_29" x="10.0544" y="15.9733" width="17.8912" height="22.0733" filterUnits="userSpaceOnUse" color-interpolation-filters="sRGB">
<feFlood flood-opacity="0" result="BackgroundImageFix"/>
<feColorMatrix in="SourceAlpha" type="matrix" values="0 0 0 0 0 0 0 0 0 0 0 0 0 0 0 0 0 0 127 0" result="hardAlpha"/>
<feOffset dy="1.5"/>
<feGaussianBlur stdDeviation="2"/>
<feColorMatrix type="matrix" values="0 0 0 0 0.623529 0 0 0 0 0.65098 0 0 0 0 0.694118 0 0 0 0.44 0"/>
<feBlend mode="normal" in2="BackgroundImageFix" result="effect1_dropShadow_1_29"/>
<feBlend mode="normal" in="SourceGraphic" in2="effect1_dropShadow_1_29" result="shape"/>
</filter>
<filter id="filter5_d_1_29" x="4.24438" y="15.3646" width="18.8912" height="18.8912" filterUnits="userSpaceOnUse" color-interpolation-filters="sRGB">
<feFlood flood-opacity="0" result="BackgroundImageFix"/>
<feColorMatrix in="SourceAlpha" type="matrix" values="0 0 0 0 0 0 0 0 0 0 0 0 0 0 0 0 0 0 127 0" result="hardAlpha"/>
<feOffset dy="1.5"/>
<feGaussianBlur stdDeviation="2"/>
<feColorMatrix type="matrix" values="0 0 0 0 0.623529 0 0 0 0 0.65098 0 0 0 0 0.694118 0 0 0 0.44 0"/>
<feBlend mode="normal" in2="BackgroundImageFix" result="effect1_dropShadow_1_29"/>
<feBlend mode="normal" in="SourceGraphic" in2="effect1_dropShadow_1_29" result="shape"/>
</filter>
<filter id="filter6_d_1_29" x="15.4737" y="10.5544" width="22.0733" height="17.8912" filterUnits="userSpaceOnUse" color-interpolation-filters="sRGB">
<feFlood flood-opacity="0" result="BackgroundImageFix"/>
<feColorMatrix in="SourceAlpha" type="matrix" values="0 0 0 0 0 0 0 0 0 0 0 0 0 0 0 0 0 0 127 0" result="hardAlpha"/>
<feOffset dy="1.5"/>
<feGaussianBlur stdDeviation="2"/>
<feColorMatrix type="matrix" values="0 0 0 0 0.623529 0 0 0 0 0.65098 0 0 0 0 0.694118 0 0 0 0.44 0"/>
<feBlend mode="normal" in2="BackgroundImageFix" result="effect1_dropShadow_1_29"/>
<feBlend mode="normal" in="SourceGraphic" in2="effect1_dropShadow_1_29" result="shape"/>
</filter>
<filter id="filter7_d_1_29" x="14.8654" y="15.3647" width="18.8912" height="18.8912" filterUnits="userSpaceOnUse" color-interpolation-filters="sRGB">
<feFlood flood-opacity="0" result="BackgroundImageFix"/>
<feColorMatrix in="SourceAlpha" type="matrix" values="0 0 0 0 0 0 0 0 0 0 0 0 0 0 0 0 0 0 127 0" result="hardAlpha"/>
<feOffset dy="1.5"/>
<feGaussianBlur stdDeviation="2"/>
<feColorMatrix type="matrix" values="0 0 0 0 0.623529 0 0 0 0 0.65098 0 0 0 0 0.694118 0 0 0 0.44 0"/>
<feBlend mode="normal" in2="BackgroundImageFix" result="effect1_dropShadow_1_29"/>
<feBlend mode="normal" in="SourceGraphic" in2="effect1_dropShadow_1_29" result="shape"/>
</filter>
<filter id="filter8_d_1_29" x="11.7449" y="12.4686" width="14.7159" height="14.7159" filterUnits="userSpaceOnUse" color-interpolation-filters="sRGB">
<feFlood flood-opacity="0" result="BackgroundImageFix"/>
<feColorMatrix in="SourceAlpha" type="matrix" values="0 0 0 0 0 0 0 0 0 0 0 0 0 0 0 0 0 0 127 0" result="hardAlpha"/>
<feOffset dy="1.5"/>
<feGaussianBlur stdDeviation="2"/>
<feColorMatrix type="matrix" values="0 0 0 0 0.623529 0 0 0 0 0.65098 0 0 0 0 0.694118 0 0 0 0.44 0"/>
<feBlend mode="normal" in2="BackgroundImageFix" result="effect1_dropShadow_1_29"/>
<feBlend mode="normal" in="SourceGraphic" in2="effect1_dropShadow_1_29" result="shape"/>
</filter>
</defs>
</svg>
